<svg id="Layer_1" data-name="Layer 1" xmlns="http://www.w3.org/2000/svg" viewBox="0 0 37.08 146.58"><defs><style>.cls-1{fill:#274fc4;}</style></defs><path class="cls-1" d="M27.11,32.3a93.72,93.72,0,0,0-.54,21.55c.07.81,1.61.65,1.63-.14a167.5,167.5,0,0,1,1.22-18.29C64.93,76.49,69.5,130.2,45,177.46c-.25.48.66.81.95.32,27.93-46.49,21.19-102.22-13.76-143,6.56,1.92,13.75,3.64,20.62,3.83,1.49,0,1.87-1.42.46-1.74C45.14,35,37,33.92,29.05,31.51,28.32,31.29,27.2,31.6,27.11,32.3Z" transform="translate(-26.18 -31.44)"/></svg>