<svg id="Layer_1" data-name="Layer 1" xmlns="http://www.w3.org/2000/svg" viewBox="0 0 33.35 147.32"><defs><style>.cls-1{fill:#274fc4;}</style></defs><path class="cls-1" d="M27,176.42a94.76,94.76,0,0,1-1.77-21.48c0-.81,1.58-.74,1.64.05a169.84,169.84,0,0,0,2.26,18.19c33.12-43,34.63-96.9,7.48-142.69-.28-.47.61-.85.93-.38C68.1,75,64.53,131,32,173.71c6.44-2.3,13.52-4.42,20.37-5,1.49-.13,2,1.31.56,1.71-8,2.27-16.11,3.83-23.87,6.69C28.3,177.37,27.16,177.12,27,176.42Z" transform="translate(-25.2 -29.89)"/></svg>