<svg xmlns="http://www.w3.org/2000/svg" viewBox="0 0 480 480" fill="#274fc4"><path d="M456.888 51.872C461.272 46.392 464 39.544 464 32c0-17.648-14.352-32-32-32s-32 14.352-32 32c0 7.544 2.728 14.392 7.112 19.872C393.504 58.264 384 72 384 88v16c0 4.424 3.576 8 8 8h80c4.424 0 8-3.576 8-8V88c0-16-9.504-29.736-23.112-36.128zM432 16c8.824 0 16 7.176 16 16s-7.176 16-16 16-16-7.176-16-16 7.176-16 16-16zm32 80h-64v-8c0-13.232 10.768-24 24-24h16c13.232 0 24 10.768 24 24v8zM392.888 243.872C397.272 238.392 400 231.544 400 224c0-17.648-14.352-32-32-32-6.512 0-12.568 1.976-17.624 5.336-3.152-11.296-11.04-20.56-21.488-25.464C333.272 166.392 336 159.544 336 152c0-17.648-14.352-32-32-32-6.512 0-12.568 1.976-17.624 5.336-3.152-11.296-11.04-20.56-21.488-25.464C269.272 94.392 272 87.544 272 80c0-17.648-14.352-32-32-32s-32 14.352-32 32c0 7.544 2.728 14.392 7.112 19.872C201.504 106.264 192 120 192 136v16c0 4.424 3.576 8 8 8h73.136c1.144 4.416 3.208 8.416 5.976 11.872C265.504 178.264 256 192 256 208v16c0 4.424 3.576 8 8 8h73.136c1.144 4.416 3.208 8.416 5.976 11.872C329.504 250.264 320 264 320 280v16c0 4.424 3.576 8 8 8h80c4.424 0 8-3.576 8-8v-16c0-16-9.504-29.736-23.112-36.128zM240 64c8.824 0 16 7.176 16 16s-7.176 16-16 16-16-7.176-16-16 7.176-16 16-16zm32 80h-64v-8c0-13.232 10.768-24 24-24h16c13.232 0 24 10.768 24 24v8zm32-8c8.824 0 16 7.176 16 16s-7.176 16-16 16-16-7.176-16-16 7.176-16 16-16zm32 80h-64v-8c0-13.232 10.768-24 24-24h16c13.232 0 24 10.768 24 24v8zm32-8c8.824 0 16 7.176 16 16s-7.176 16-16 16-16-7.176-16-16 7.176-16 16-16zm32 80h-64v-8c0-13.232 10.768-24 24-24h16c13.232 0 24 10.768 24 24v8zM346.336 122.32l15.998-15.998 11.313 11.314-15.997 15.997zM416 160h16v24h-16zM296 48h24v16h-24zM218.337 250.344l15.997-15.998 11.314 11.314-15.998 15.997zM288 288h16v24h-16zM168 176h24v16h-24z"/><path d="M328.888 419.872C333.272 414.392 336 407.544 336 400c0-17.648-14.352-32-32-32-5.992 0-11.544 1.76-16.344 4.632a39.865 39.865 0 00-22.776-32.76c4.392-5.48 7.12-12.328 7.12-19.872 0-17.648-14.352-32-32-32-6.512 0-12.568 1.976-17.624 5.336-3.152-11.296-11.04-20.56-21.488-25.464C205.272 262.392 208 255.544 208 248c0-17.648-14.352-32-32-32-6.512 0-12.568 1.976-17.624 5.336-3.152-11.296-11.04-20.56-21.488-25.464C141.272 190.392 144 183.544 144 176c0-17.648-14.352-32-32-32-6.512 0-12.568 1.976-17.624 5.336-3.152-11.296-11.04-20.56-21.488-25.464C77.272 118.392 80 111.544 80 104c0-17.648-14.352-32-32-32s-32 14.352-32 32c0 7.544 2.728 14.392 7.112 19.872C9.504 130.264 0 144 0 160v16c0 4.424 3.576 8 8 8h73.136c1.144 4.416 3.208 8.416 5.976 11.872-10.448 4.904-18.336 14.168-21.488 25.464C60.568 217.976 54.512 216 48 216c-17.648 0-32 14.352-32 32 0 7.544 2.728 14.392 7.112 19.872C9.504 274.264 0 288 0 304v16c0 4.424 3.576 8 8 8h73.136c1.144 4.416 3.208 8.416 5.976 11.872a40.106 40.106 0 00-19.24 19.24C62.392 354.728 55.544 352 48 352c-17.648 0-32 14.352-32 32 0 7.544 2.728 14.392 7.112 19.872C9.504 410.264 0 424 0 440v16c0 4.424 3.576 8 8 8h80c4.424 0 8-3.576 8-8v-16c0-16-9.504-29.736-23.112-36.128A30.75 30.75 0 0075.552 400h69.584c1.144 4.416 3.208 8.416 5.976 11.872C137.504 418.264 128 432 128 448v16c0 4.424 3.576 8 8 8h80c4.424 0 8-3.576 8-8v-16c0-16-9.504-29.736-23.112-36.128 2.768-3.456 4.832-7.456 5.976-11.872H272c0 7.544 2.728 14.392 7.112 19.872C265.504 426.264 256 440 256 456v16c0 4.424 3.576 8 8 8h80c4.424 0 8-3.576 8-8v-16c0-16-9.504-29.736-23.112-36.128zM48 88c8.824 0 16 7.176 16 16s-7.176 16-16 16-16-7.176-16-16 7.176-16 16-16zm32 80H16v-8c0-13.232 10.768-24 24-24h16c13.232 0 24 10.768 24 24v8zM48 368c8.824 0 16 7.176 16 16s-7.176 16-16 16-16-7.176-16-16 7.176-16 16-16zm32 72v8H16v-8c0-13.232 10.768-24 24-24h16c13.232 0 24 10.768 24 24zm160-136c8.824 0 16 7.176 16 16s-7.176 16-16 16-16-7.176-16-16 7.176-16 16-16zm-64-72c8.824 0 16 7.176 16 16s-7.176 16-16 16-16-7.176-16-16 7.176-16 16-16zm-8 48h16c13.232 0 24 10.768 24 24v8h-64v-8c0-13.232 10.768-24 24-24zm-56-120c8.824 0 16 7.176 16 16s-7.176 16-16 16-16-7.176-16-16 7.176-16 16-16zm-32 72c0-13.232 10.768-24 24-24h16c13.232 0 24 10.768 24 24v8H80v-8zm-32 0c8.824 0 16 7.176 16 16s-7.176 16-16 16-16-7.176-16-16 7.176-16 16-16zm32 80H16v-8c0-13.232 10.768-24 24-24h16c13.232 0 24 10.768 24 24v8zm-7.112-44.128c2.768-3.456 4.832-7.456 5.976-11.872h66.272c1.144 4.416 3.208 8.416 5.976 11.872-10.448 4.904-18.336 14.168-21.488 25.464C124.568 289.976 118.512 288 112 288c-6.512 0-12.568 1.976-17.624 5.336-3.152-11.296-11.04-20.56-21.488-25.464zM128 320c0 8.824-7.176 16-16 16s-16-7.176-16-16 7.176-16 16-16 16 7.176 16 16zm16 64H80v-8c0-13.232 10.768-24 24-24h16c13.232 0 24 10.768 24 24v8zm64 64v8h-64v-8c0-13.232 10.768-24 24-24h16c13.232 0 24 10.768 24 24zm-48-56c0-8.824 7.176-16 16-16s16 7.176 16 16-7.176 16-16 16-16-7.176-16-16zm33.624-26.664C188.568 361.976 182.512 360 176 360c-6.512 0-12.568 1.976-17.624 5.336-3.152-11.296-11.04-20.56-21.488-25.464 2.768-3.456 4.832-7.456 5.976-11.872h66.272c1.144 4.416 3.208 8.416 5.976 11.872-10.448 4.904-18.336 14.168-21.488 25.464zM272 384h-64v-8c0-13.232 10.768-24 24-24h16c13.232 0 24 10.768 24 24v8zm32 0c8.824 0 16 7.176 16 16s-7.176 16-16 16-16-7.176-16-16 7.176-16 16-16zm32 80h-64v-8c0-13.232 10.768-24 24-24h16c13.232 0 24 10.768 24 24v8z"/></svg>
