<svg height="512" fill="#274fc4" viewBox="0 0 551.122 551.122" width="512" xmlns="http://www.w3.org/2000/svg"><path d="M275.561 551.122c-2.573 0-5.163-.572-7.535-1.749-108.955-53.048-199.139-110.3-199.139-273.816V86.106a17.197 17.197 0 0111.336-16.18L269.674 1.034a17.269 17.269 0 0111.773 0l189.451 68.891a17.197 17.197 0 0111.336 16.18v189.451c0 163.516-90.184 220.768-199.139 273.816a16.936 16.936 0 01-7.534 1.75zM103.333 98.165v177.392c0 128.482 57.992 182.454 172.228 239.135 114.236-56.681 172.228-110.653 172.228-239.135V98.165L275.561 35.547 103.333 98.165z"/><path d="M263.384 344.447l-81.068-81.068 24.354-24.354 56.714 56.714 108.382-108.383 24.354 24.354z"/></svg>
