<svg data-name="Layer 1" fill="#274fc4" xmlns="http://www.w3.org/2000/svg" viewBox="0 0 56.34 67.69"><path d="M53.82 55.4l-.21.28a.41.41 0 00-.21.22.45.45 0 00-.22.21 4.39 4.39 0 00-1 .94Q47.22 62 42.34 66.9l-.17.18a1.58 1.58 0 01-2.3.22c-.07-.11-.18-.19-.25-.31a1.37 1.37 0 01-.24-.71 1.81 1.81 0 01.22-1.14c0-.19.19-.28.32-.4.5-.5 1-1 1.51-1.5s.93-.9 1.36-1.4c.15-.17.32-.32.47-.5a.65.65 0 00.36-.35 1.52 1.52 0 00.47-.44.7.7 0 00.24-.21l3-3 .79-.78c.09-.09.19-.21.13-.34s-.2-.1-.32-.1H2.12a5.5 5.5 0 01-1.07-.07 1 1 0 00-.37-.2c-.13-.13-.32-.19-.42-.37a1.94 1.94 0 00-.22-.43 3.2 3.2 0 010-1.07 1.94 1.94 0 01.86-1 5.81 5.81 0 011.25-.1h45.69c.13 0 .27 0 .34-.15s-.06-.23-.13-.33c-1.35-1.33-2.7-2.66-4-4a.43.43 0 00-.22-.22c-.08 0-.13-.13-.21-.19-.36-.37-.74-.72-1.09-1.11a.41.41 0 00-.22-.21 11.36 11.36 0 01-.85-.85.47.47 0 00-.16-.21l-.07-.07a.54.54 0 00-.15-.15l-.06-.06a.39.39 0 00-.2-.16 1 1 0 01-.23-.22.41.41 0 00-.16-.21l-.09-.04a.54.54 0 00-.15-.15l-.06-.06a.81.81 0 00-.16-.16l-.06-.06s-.07-.09-.12-.11a1.74 1.74 0 01-.45-1.53 1.94 1.94 0 011.12-1.25h.53a1.6 1.6 0 011 .35 6.93 6.93 0 011 1c.09.11.18.2.26.31.52.6 1.1 1.13 1.65 1.69 1.55 1.57 3.13 3.11 4.67 4.7l4 4 .07.06a1.6 1.6 0 00.25.27 1.58 1.58 0 01.17 1.2 1.16 1.16 0 00-.24.44zM16.96 2.11l-.24.5a.28.28 0 00-.23.06c-2.77 2.89-5.66 5.66-8.46 8.51-.06.07-.18.1-.13.23a.27.27 0 00.26.16h46.05a2.16 2.16 0 011.67.61h.1a1.58 1.58 0 01.16 1.82l-.16.24a2.25 2.25 0 01-1.08.64.7.7 0 01-.38 0H8.34c-.1 0-.24 0-.28.1s.08.22.15.3q.7.72 1.41 1.41c.72.72 1.42 1.46 2.17 2.14l2.55 2.61c.76.74 1.48 1.51 2.22 2.25.15.15.2.35.33.5a1.86 1.86 0 01-.23 1.57 1.31 1.31 0 01-.17.24.16.16 0 01-.08.06c-.51.29-1 .57-1.6.21a1 1 0 01-.55-.31l-2.47-2.47c-1.17-1.3-2.45-2.49-3.67-3.76L2.79 14.4c-.11-.11-.22-.22-.34-.32a.27.27 0 01-.11-.08.31.31 0 01-.05-.1 1.63 1.63 0 01.55-2 4.3 4.3 0 00.59-.62c.06-.1.13-.19.18-.28l.06-.08c1.85-1.73 3.61-3.55 5.4-5.33l.12-.1A19 19 0 0010.83 4c1.11-1.1 2.2-2.21 3.3-3.3a1.16 1.16 0 00.29-.37 1.65 1.65 0 012.28.36c.06.1.12.2.19.3a3.36 3.36 0 01.07 1.12z"/></svg>
